<!DOCTYPE svg PUBLIC "-//W3C//DTD SVG 1.1//EN" "http://www.w3.org/Graphics/SVG/1.1/DTD/svg11.dtd">
<!-- Uploaded to: SVG Repo, www.svgrepo.com, Transformed by: SVG Repo Mixer Tools -->
<svg height="800px" width="800px" version="1.1" id="Layer_1" xmlns="http://www.w3.org/2000/svg" xmlns:xlink="http://www.w3.org/1999/xlink" viewBox="0 0 512 512" xml:space="preserve" fill="#000000">
<g id="SVGRepo_bgCarrier" stroke-width="0"/>
<g id="SVGRepo_tracerCarrier" stroke-linecap="round" stroke-linejoin="round"/>
<g id="SVGRepo_iconCarrier"> <g transform="translate(1)"> <g> <path style="fill:#FFDD09;" d="M357.4,349.867c-2.56,0-4.267-0.853-5.973-2.56c-3.413-3.413-3.413-8.533,0-11.947l102.4-102.4 c3.413-3.413,8.533-3.413,11.947,0c3.413,3.413,3.413,8.533,0,11.947l-102.4,102.4C361.667,349.013,359.96,349.867,357.4,349.867z "/> <path style="fill:#FFDD09;" d="M408.6,298.667c-5.12,0-8.533-3.413-8.533-8.533v-51.2c0-5.12,3.413-8.533,8.533-8.533 c5.12,0,8.533,3.413,8.533,8.533v51.2C417.133,295.253,413.72,298.667,408.6,298.667z"/> <path style="fill:#FFDD09;" d="M468.333,273.067H434.2c-5.12,0-8.533-3.413-8.533-8.533c0-5.12,3.413-8.533,8.533-8.533h34.133 c5.12,0,8.533,3.413,8.533,8.533C476.867,269.653,473.453,273.067,468.333,273.067z"/> <path style="fill:#FFDD09;" d="M374.467,259.413c-4.267,5.12-8.533,9.387-13.653,12.8c18.773,23.893,30.72,53.76,30.72,86.187 c0,44.373-20.48,82.773-52.907,108.373c-9.387,7.68-22.187,11.093-34.133,11.093h25.6c11.947,0,24.747-4.267,34.133-11.093 c32.427-25.6,52.907-64.853,52.907-108.373C417.133,319.147,400.92,284.16,374.467,259.413"/> </g> <path style="fill:#54C9FD;" d="M379.587,220.16l-11.093-6.827c-3.413,5.973-7.68,11.947-11.947,17.067 c6.827,5.12,10.24,14.507,5.973,22.187c-9.387,17.067-22.187,30.72-39.253,40.96c27.307-8.533,49.493-25.6,62.293-51.2 C389.827,234.667,386.413,225.28,379.587,220.16"/> <path style="fill:#FFDD09;" d="M336.92,76.8h-25.6c27.307,17.92,46.08,49.493,46.08,85.333c0,52.053-39.253,95.573-89.6,101.547 c4.267,0.853,8.533,0.853,12.8,0.853c56.32,0,102.4-46.08,102.4-102.4C383,126.293,365.08,94.72,336.92,76.8"/> <path style="fill:#FCC309;" d="M352.28,453.973c-4.267,4.267-8.533,8.533-13.653,11.947c-9.387,7.68-22.187,11.093-34.133,11.093 h-98.987c-11.947,0-24.747-4.267-34.133-11.093c-5.12-3.413-9.387-7.68-13.653-11.947C69.827,458.24,7.533,467.627,7.533,477.867 c0,14.507,110.933,25.6,247.467,25.6s247.467-11.093,247.467-25.6C502.467,467.627,440.173,458.24,352.28,453.973"/> <path style="fill:#FFFFFF;" d="M50.2,477.867c0-8.533,43.52-17.067,110.08-21.333c-0.853-0.853-1.707-1.707-2.56-2.56 C69.827,458.24,7.533,467.627,7.533,477.867c0,14.507,110.933,25.6,247.467,25.6c6.827,0,14.507,0,21.333,0 C150.04,502.613,50.2,491.52,50.2,477.867"/> <path style="fill:#FD9808;" d="M459.8,477.867c0-8.533-43.52-17.067-110.08-21.333c0.853-0.853,1.707-1.707,2.56-2.56 c87.893,4.267,150.187,13.653,150.187,23.893c0,14.507-110.933,25.6-247.467,25.6c-6.827,0-14.507,0-21.333,0 C359.96,502.613,459.8,491.52,459.8,477.867"/> <path style="fill:#FFDD09;" d="M348.867,259.413c-22.187,25.6-55.467,39.253-93.867,39.253s-72.533-13.653-93.867-39.253 c-26.453,24.747-42.667,59.733-42.667,98.987c0,44.373,20.48,82.773,52.907,108.373c9.387,7.68,22.187,11.093,34.133,11.093h98.987 c11.947,0,24.747-4.267,34.133-11.093c32.427-25.6,52.907-64.853,52.907-108.373C391.533,319.147,375.32,284.16,348.867,259.413"/> <path style="fill:#FD9808;" d="M348.867,259.413c-4.267,5.12-8.533,9.387-13.653,12.8c18.773,23.893,30.72,53.76,30.72,86.187 c0,44.373-20.48,82.773-52.907,108.373c-9.387,7.68-22.187,11.093-34.133,11.093h25.6c11.947,0,24.747-4.267,34.133-11.093 c32.427-25.6,52.907-64.853,52.907-108.373C391.533,319.147,375.32,284.16,348.867,259.413"/> <path style="fill:#FFDD09;" d="M311.32,76.8H198.68c-27.307,17.92-46.08,49.493-46.08,85.333c0,5.973,0.853,11.093,1.707,17.067 l66.56-17.067c11.947,12.8,11.093,34.987,0,51.2l-61.44-15.36c14.507,38.4,51.2,66.56,95.573,66.56 c56.32,0,102.4-46.08,102.4-102.4C357.4,126.293,339.48,94.72,311.32,76.8"/> <path style="fill:#FD9808;" d="M311.32,76.8h-25.6c27.307,17.92,46.08,49.493,46.08,85.333c0,52.053-39.253,95.573-89.6,101.547 c4.267,0.853,8.533,0.853,12.8,0.853c56.32,0,102.4-46.08,102.4-102.4C357.4,126.293,339.48,94.72,311.32,76.8"/> <polygon style="fill:#1CD759;" points="314.733,51.2 314.733,8.533 195.267,8.533 195.267,51.2 169.667,51.2 169.667,76.8 195.267,76.8 314.733,76.8 340.333,76.8 340.333,51.2 "/> <g> <polygon style="fill:#15A143;" points="289.133,51.2 314.733,51.2 314.733,8.533 289.133,8.533 "/> <polygon style="fill:#15A143;" points="314.733,76.8 340.333,76.8 340.333,51.2 314.733,51.2 "/> </g> <g> <polygon style="fill:#FFFFFF;" points="195.267,51.2 220.867,51.2 220.867,8.533 195.267,8.533 "/> <polygon style="fill:#FFFFFF;" points="169.667,76.8 195.267,76.8 195.267,51.2 169.667,51.2 "/> </g> <g> <polygon style="fill:#1CD759;" points="314.733,51.2 340.333,51.2 340.333,0 314.733,0 "/> <polygon style="fill:#1CD759;" points="340.333,76.8 365.933,76.8 365.933,51.2 340.333,51.2 "/> </g> <path style="fill:#54C9FD;" d="M344.6,211.627c-17.067,31.573-51.2,52.907-89.6,52.907s-72.533-21.333-89.6-52.907l-11.093,6.827 c-7.68,5.12-10.24,14.507-5.973,22.187c19.627,37.547,59.733,58.027,106.667,58.027s87.04-20.48,106.667-58.027 c4.267-7.68,0.853-17.92-5.973-22.187L344.6,211.627z"/> <path style="fill:#33A9F8;" d="M357.4,220.16l-10.24-6.827c-3.413,5.973-7.68,11.947-11.947,17.067 c6.827,5.12,10.24,14.507,5.973,22.187c-9.387,17.067-22.187,30.72-39.253,40.96c27.307-8.533,49.493-25.6,62.293-51.2 C368.493,234.667,365.08,225.28,357.4,220.16"/> <g> <path style="fill:#FFFFFF;" d="M161.133,259.413c4.267,5.12,8.533,9.387,13.653,12.8c-18.773,23.893-30.72,53.76-30.72,86.187 c0,43.52,20.48,82.773,52.907,108.373c9.387,7.68,22.187,11.093,34.133,11.093h-25.6c-11.947,0-24.747-4.267-34.133-11.093 c-32.427-25.6-52.907-64.853-52.907-108.373C118.467,319.147,134.68,284.16,161.133,259.413"/> <path style="fill:#FFFFFF;" d="M198.68,76.8h25.6c-27.307,17.92-46.08,49.493-46.08,85.333c0,52.053,39.253,95.573,89.6,101.547 c-4.267,0.853-8.533,0.853-12.8,0.853c-56.32,0-102.4-46.08-102.4-102.4C152.6,126.293,170.52,94.72,198.68,76.8"/> <path style="fill:#FFFFFF;" d="M152.6,220.16l11.093-6.827c3.413,5.973,7.68,11.947,11.947,17.067 c-6.827,5.12-10.24,14.507-5.973,22.187c9.387,17.067,22.187,30.72,39.253,40.96c-27.307-8.533-49.493-25.6-62.293-51.2 C141.507,234.667,144.92,225.28,152.6,220.16"/> </g> <g> <path style="fill:#54C9FD;" d="M220.867,162.133L220.867,162.133l-92.16,23.04c-2.56,0.853-2.56,4.267,0,5.12l92.16,23.04 C231.96,197.12,232.813,174.933,220.867,162.133"/> <polygon style="fill:#54C9FD;" points="195.267,298.667 169.667,324.267 203.8,358.4 230.253,333.653 "/> <path style="fill:#54C9FD;" d="M255,298.667v102.4h51.2V289.28C290.84,295.253,273.773,298.667,255,298.667"/> </g> <path d="M348.867,349.867c-2.56,0-4.267-0.853-5.973-2.56c-3.413-3.413-3.413-8.533,0-11.947l102.4-102.4 c3.413-3.413,8.533-3.413,11.947,0c3.413,3.413,3.413,8.533,0,11.947l-102.4,102.4 C353.133,349.013,351.427,349.867,348.867,349.867z"/> <path d="M400.067,298.667c-5.12,0-8.533-3.413-8.533-8.533v-51.2c0-5.12,3.413-8.533,8.533-8.533s8.533,3.413,8.533,8.533v51.2 C408.6,295.253,405.187,298.667,400.067,298.667z"/> <path d="M459.8,273.067h-34.133c-5.12,0-8.533-3.413-8.533-8.533c0-5.12,3.413-8.533,8.533-8.533H459.8 c5.12,0,8.533,3.413,8.533,8.533C468.333,269.653,464.92,273.067,459.8,273.067z"/> <path d="M365.933,85.333H144.067c-5.12,0-8.533-3.413-8.533-8.533s3.413-8.533,8.533-8.533h221.867c5.12,0,8.533,3.413,8.533,8.533 S371.053,85.333,365.933,85.333z"/> <path d="M348.867,85.333H161.133V42.667h25.6V0h136.533v42.667h25.6V85.333z M178.2,68.267h153.6v-8.533h-25.6V17.067H203.8v42.667 h-25.6V68.267z"/> <path d="M220.867,59.733h-25.6c-5.12,0-8.533-3.413-8.533-8.533s3.413-8.533,8.533-8.533h25.6c5.12,0,8.533,3.413,8.533,8.533 S225.987,59.733,220.867,59.733z"/> <path d="M314.733,59.733H255c-5.12,0-8.533-3.413-8.533-8.533s3.413-8.533,8.533-8.533h59.733c5.12,0,8.533,3.413,8.533,8.533 S319.853,59.733,314.733,59.733z"/> <path d="M224.28,222.72L127,198.827c-5.12-0.853-8.533-5.973-8.533-11.093c0-5.12,3.413-9.387,8.533-11.093l96.427-23.893 l3.413,3.413c14.507,15.36,14.507,42.667,0.853,62.293L224.28,222.72z M153.453,187.733l63.147,16.213 c5.12-10.24,5.12-23.04,0.853-31.573L153.453,187.733z M131.267,193.707L131.267,193.707L131.267,193.707z M131.267,181.76 L131.267,181.76L131.267,181.76z"/> <path d="M255,230.4c-5.12,0-8.533-3.413-8.533-8.533c0-5.12,3.413-8.533,8.533-8.533c14.507,0,25.6-11.093,25.6-25.6 c0-5.12,3.413-8.533,8.533-8.533c5.12,0,8.533,3.413,8.533,8.533C297.667,211.627,278.893,230.4,255,230.4z"/> <path d="M233.667,145.067c-3.413,0-5.973-1.707-7.68-4.267c-4.267-8.533-9.387-12.8-13.653-12.8s-9.387,4.267-13.653,12.8 c-2.56,4.267-7.68,5.973-11.093,3.413c-4.267-2.56-5.973-7.68-3.413-11.093c6.827-13.653,17.92-21.333,29.013-21.333 c11.093,0,21.333,7.68,29.013,21.333c2.56,4.267,0.853,9.387-3.413,11.093C236.227,145.067,235.373,145.067,233.667,145.067z"/> <path d="M319,145.067c-3.413,0-5.973-1.707-7.68-4.267c-4.267-8.533-9.387-12.8-13.653-12.8s-9.387,4.267-13.653,12.8 c-2.56,4.267-7.68,5.973-11.093,3.413c-4.267-2.56-5.973-7.68-3.413-11.093c6.827-13.653,17.92-21.333,29.013-21.333 c11.093,0,21.333,7.68,29.013,21.333c2.56,4.267,0.853,9.387-3.413,11.093C321.56,145.067,320.707,145.067,319,145.067z"/> <path d="M255,273.067c-46.08,0-87.893-29.013-104.107-72.533l-5.973-15.36h0.853l-0.853-5.973c0-5.12-0.853-11.093-0.853-17.067 c0-37.547,18.773-71.68,49.493-92.16l2.56-1.707h118.613l2.56,1.707c29.867,20.48,48.64,54.613,48.64,92.16 C365.933,223.573,316.44,273.067,255,273.067z M174.787,210.773C191.853,238.08,221.72,256,255,256 c52.053,0,93.867-41.813,93.867-93.867c0-30.72-14.507-58.88-40.107-76.8H201.24c-24.747,17.92-40.107,46.08-40.107,76.8 c0,1.707,0,4.267,0,5.973l62.293-15.36l3.413,3.413c14.507,15.36,14.507,42.667,0.853,62.293l-3.413,5.12L174.787,210.773z M153.453,187.733l63.147,16.213c5.12-10.24,5.12-23.04,0.853-31.573L153.453,187.733z"/> <path d="M255,307.2c-51.2,0-93.867-23.04-114.347-62.293c-5.973-11.947-1.707-26.453,9.387-33.28l18.773-11.947l4.267,7.68 C189.293,237.227,220.867,256,255,256s65.707-18.773,81.92-48.64l4.267-7.68l18.773,11.947c11.093,7.68,15.36,22.187,9.387,33.28 C348.867,284.16,306.2,307.2,255,307.2z M162.84,223.573l-3.413,2.56c-4.267,2.56-5.12,7.68-3.413,11.093 c17.92,34.133,53.76,52.907,98.987,52.907s81.92-19.627,98.987-52.907c1.707-3.413,0.853-8.533-3.413-11.093l-3.413-2.56 c-20.48,30.72-54.613,49.493-92.16,49.493S183.32,254.293,162.84,223.573z"/> <path d="M314.733,409.6h-68.267V290.133H255c17.067,0,33.28-2.56,47.787-8.533l11.947-4.267V409.6z M263.533,392.533h34.133 v-91.307c-11.093,3.413-22.187,5.12-34.133,5.973V392.533z"/> <path style="fill:#54C9FD;" d="M255,298.667c-17.92,0-34.987-3.413-50.347-8.533l-34.987,34.133L203.8,358.4l51.2-46.08V298.667z"/> <path d="M203.8,370.347l-46.08-46.08l45.227-44.373l5.12,1.707c14.507,5.12,30.72,8.533,46.933,8.533h8.533v25.6L203.8,370.347z M181.613,324.267l22.187,22.187l42.667-38.4V307.2c-13.653-0.853-27.307-3.413-39.253-7.68L181.613,324.267z"/> <path d="M304.493,486.4h-98.987c-14.507,0-28.16-5.12-39.253-13.653c-35.84-27.307-56.32-69.12-56.32-114.347 c0-40.107,16.213-77.653,45.227-104.96l6.827-5.973l5.973,6.827c19.627,23.04,51.2,35.84,87.893,35.84s67.413-12.8,87.893-35.84 l5.973-6.827l6.827,5.973c27.307,27.307,43.52,64.853,43.52,104.96c0,45.227-20.48,87.04-56.32,114.347 C332.653,481.28,319,486.4,304.493,486.4z M161.133,272.213C138.947,296.107,127,325.973,127,358.4 c0,40.107,17.92,76.8,49.493,101.547c7.68,5.973,18.773,9.387,29.013,9.387h98.987c10.24,0,20.48-3.413,29.013-9.387 C365.08,435.2,383,398.507,383,358.4c0-32.427-11.947-63.147-34.133-86.187c-23.04,23.04-56.32,34.987-93.867,34.987 C216.6,307.2,184.173,294.4,161.133,272.213z"/> <path d="M255,435.2c-5.12,0-8.533-3.413-8.533-8.533v-25.6c0-5.12,3.413-8.533,8.533-8.533s8.533,3.413,8.533,8.533v25.6 C263.533,431.787,260.12,435.2,255,435.2z"/> <path d="M280.6,435.2c-5.12,0-8.533-3.413-8.533-8.533v-25.6c0-5.12,3.413-8.533,8.533-8.533s8.533,3.413,8.533,8.533v25.6 C289.133,431.787,285.72,435.2,280.6,435.2z"/> <path d="M306.2,435.2c-5.12,0-8.533-3.413-8.533-8.533v-25.6c0-5.12,3.413-8.533,8.533-8.533s8.533,3.413,8.533,8.533v25.6 C314.733,431.787,311.32,435.2,306.2,435.2z"/> <path d="M152.6,349.867c-2.56,0-4.267-0.853-5.973-2.56c-3.413-3.413-3.413-8.533,0-11.947l17.067-17.067 c3.413-3.413,8.533-3.413,11.947,0c3.413,3.413,3.413,8.533,0,11.947l-17.067,17.067C156.867,349.013,155.16,349.867,152.6,349.867 z"/> <path d="M169.667,366.933c-2.56,0-4.267-0.853-5.973-2.56c-3.413-3.413-3.413-8.533,0-11.947l17.067-17.067 c3.413-3.413,8.533-3.413,11.947,0c3.413,3.413,3.413,8.533,0,11.947l-17.067,17.067 C173.933,366.08,172.227,366.933,169.667,366.933z"/> <path d="M186.733,384c-2.56,0-4.267-0.853-5.973-2.56c-3.413-3.413-3.413-8.533,0-11.947l17.067-17.067 c3.413-3.413,8.533-3.413,11.947,0c3.413,3.413,3.413,8.533,0,11.947l-17.067,17.067C191,383.147,189.293,384,186.733,384z"/> <path d="M314.733,409.6h-68.267v-51.2h68.267V409.6z M263.533,392.533h34.133v-17.067h-34.133V392.533z"/> <path d="M203.8,370.347l-46.08-46.08l38.4-37.547l47.787,47.787L203.8,370.347z M181.613,324.267l22.187,22.187l14.507-12.8 l-23.04-23.04L181.613,324.267z"/> <path d="M255,512c-66.56,0-128.853-2.56-175.787-7.68C4.973,496.64-1,487.253-1,477.867c0-8.533,0-24.747,158.72-32.427h3.413 l2.56,2.56c4.267,4.267,8.533,7.68,12.8,11.093c7.68,5.973,18.773,9.387,29.013,9.387h98.987c10.24,0,20.48-3.413,29.013-9.387 c4.267-3.413,8.533-6.827,12.8-11.093l2.56-2.56h3.413C511,453.12,511,469.333,511,477.867c0,9.387-5.973,18.773-80.213,26.453 C383.853,509.44,321.56,512,255,512z M22.04,477.867c25.6,7.68,109.227,17.067,232.96,17.067s207.36-9.387,232.96-17.067 c-16.213-5.12-58.027-11.093-132.267-14.507c-3.413,3.413-7.68,6.827-11.947,10.24c-11.093,8.533-24.747,13.653-39.253,13.653 h-98.987c-14.507,0-28.16-5.12-39.253-13.653c-4.267-3.413-7.68-6.827-11.947-10.24C80.067,466.773,39.107,472.747,22.04,477.867z"/> </g> </g>
</svg>